<svg width="72" height="72" viewBox="0 0 72 72" fill="none" xmlns="http://www.w3.org/2000/svg">
<path d="M23.2847 36.0035C23.2847 39.5076 24.7077 42.6931 27.0157 44.9937C29.3166 47.2944 32.5024 48.7243 36.0068 48.7243C39.5113 48.7243 42.6971 47.3015 44.998 44.9937C47.2989 42.6931 48.729 39.5076 48.729 36.0035C48.729 32.4994 47.3059 29.3139 44.998 27.0132C42.6971 24.7125 39.5113 23.2826 36.0068 23.2826C32.5024 23.2826 29.3166 24.7055 27.0157 27.0132C24.7077 29.3139 23.2847 32.4923 23.2847 36.0035ZM36.0068 25.4346C38.9166 25.4346 41.5644 26.6168 43.4759 28.5352C45.3874 30.4465 46.5767 33.0869 46.5767 36.0035C46.5767 38.92 45.3874 41.5534 43.4688 43.4647C41.5573 45.376 38.9166 46.5653 35.9998 46.5653C33.09 46.5653 30.4422 45.3831 28.5307 43.4647C26.6192 41.5534 25.4298 38.9129 25.4298 35.9964C25.4298 33.0799 26.6121 30.4465 28.5307 28.5281C30.4493 26.6239 33.09 25.4346 36.0068 25.4346Z" fill="white"></path>
<path d="M56.4882 36.0035C56.4882 30.7226 54.4776 25.9019 51.1785 22.2633C48.1201 18.8866 43.9572 16.5364 39.2634 15.7861C38.6829 15.694 38.159 16.14 38.159 16.7276V16.9895C38.159 17.4567 38.4988 17.8531 38.959 17.931C43.1785 18.6176 46.9165 20.7484 49.6493 23.7994C52.559 27.0416 54.3218 31.3173 54.3218 36.0035C54.3218 38.1414 53.9537 40.1943 53.2741 42.0985C52.6865 43.7479 51.8723 45.284 50.867 46.6786C50.5909 47.0608 50.6333 47.5847 50.9661 47.9103L51.1502 48.0944C51.5679 48.512 52.2546 48.4554 52.5944 47.9811C53.7059 46.445 54.6121 44.7531 55.2705 42.9409C56.0564 40.7747 56.4882 38.4387 56.4882 36.0035Z" fill="white"></path>
<path d="M32.6302 15.8001C28.3329 16.5151 24.4887 18.5751 21.5364 21.527C18.563 24.5002 16.4957 28.3865 15.7948 32.7188C15.7028 33.3064 16.1418 33.8444 16.7364 33.8444H16.9913C17.4656 33.8444 17.855 33.4904 17.9329 33.0232C18.5701 29.1652 20.4108 25.7036 23.0586 23.0561C25.6922 20.4227 29.1258 18.5822 32.9559 17.938C33.4656 17.853 33.8479 17.4283 33.8479 16.9115V16.8195C33.8479 16.1824 33.2674 15.694 32.6302 15.8001Z" fill="white"></path>
<path d="M22.2656 51.1736C25.9046 54.4724 30.7258 56.4828 36.0072 56.4828C38.4426 56.4828 40.7789 56.051 42.9453 55.2652C44.7576 54.6069 46.4497 53.7008 47.986 52.5894C48.4603 52.2425 48.5169 51.5558 48.0992 51.1453L47.9152 50.9612C47.5824 50.6285 47.0585 50.5931 46.6833 50.8621C45.2886 51.8673 43.7453 52.6814 42.1028 53.2689C40.1984 53.9485 38.1453 54.3166 36.0072 54.3166C31.3205 54.3166 27.0444 52.5469 23.8019 49.6445C20.7506 46.9121 18.6196 43.1744 17.9329 38.9553C17.855 38.4952 17.4585 38.1554 16.9913 38.1554H16.7293C16.1417 38.1554 15.6957 38.6792 15.7877 39.2597C16.5382 43.9531 18.8957 48.1155 22.2656 51.1736Z" fill="white"></path>
<path d="M39.221 64.0292C41.9183 63.7248 44.5024 63.0381 46.9165 62.0188C49.3165 61.0135 51.5395 59.6827 53.5502 58.0829C53.9962 57.7289 54.0316 57.0635 53.628 56.6671L53.4581 56.4972C53.1183 56.1574 52.5732 56.122 52.1909 56.4264C50.3431 57.8917 48.29 59.1164 46.0811 60.0437C43.8581 60.9781 41.4865 61.6082 39.0015 61.8913C38.5201 61.948 38.159 62.3515 38.159 62.8399V63.0806C38.159 63.654 38.6546 64.0929 39.221 64.0292Z" fill="white"></path>
<path d="M56.6797 53.6229C57.0833 54.0264 57.7417 53.991 58.0957 53.545C59.6957 51.5346 61.0196 49.3047 62.0319 46.9121C63.0443 44.4981 63.7311 41.9143 64.0426 39.2172C64.1063 38.6509 63.6603 38.1554 63.0939 38.1554H62.8532C62.3718 38.1554 61.9612 38.5164 61.9045 38.9978C61.6213 41.4825 60.9842 43.8539 60.0567 46.0767C59.1293 48.2854 57.9116 50.3383 56.439 52.1859C56.1346 52.5681 56.17 53.1061 56.5098 53.453L56.6797 53.6229Z" fill="white"></path>
<path d="M36.0069 7.75859C28.2193 7.75859 21.1609 10.9229 16.0423 16.041C10.9308 21.152 7.75913 28.2168 7.75913 36.0036C7.75913 43.4294 10.6405 50.1827 15.3414 55.2229C19.8158 60.0154 25.9326 63.2576 32.7928 64.0362C32.8282 64.0433 32.8636 64.0433 32.899 64.0433C33.4158 64.0433 33.8476 63.6186 33.8476 63.0877V62.847C33.8476 62.3656 33.4866 61.955 33.0051 61.8984C26.6547 61.1693 20.991 58.1536 16.8636 53.701C12.5521 49.0501 9.91842 42.8348 9.91842 36.0036C9.91842 28.8114 12.8423 22.2917 17.5644 17.57C22.2866 12.8484 28.8069 9.92475 35.9998 9.92475C42.8246 9.92475 49.0476 12.5652 53.6989 16.8692C58.152 20.9962 61.168 26.6594 61.8972 33.0092C61.9538 33.4906 62.3573 33.8516 62.8458 33.8516H63.0866C63.6529 33.8516 64.0989 33.3561 64.0352 32.7968C63.2565 25.9444 60.014 19.8211 55.2211 15.3472C50.1874 10.6397 43.4264 7.75859 36.0069 7.75859Z" fill="white"></path>
<path d="M36.0071 0C26.0743 0 17.0761 4.035 10.5557 10.5547C4.0354 17.0744 0 26.0718 0 36.0035C0 40.5765 0.863717 44.9513 2.4354 48.9722C3.87257 52.6532 5.89734 56.0369 8.38938 59.0243C8.58761 59.2649 8.87079 59.3853 9.15398 59.3853C9.40885 59.3853 9.66371 59.2862 9.86194 59.0951L9.96814 58.9889C10.3363 58.6208 10.3646 58.0403 10.0319 57.6439C7.68141 54.8194 5.76991 51.6126 4.42478 48.1368C2.96637 44.3708 2.15929 40.2792 2.15929 36.0035C2.15929 26.6735 5.95398 18.2141 12.085 12.0838C18.2088 5.9534 26.6761 2.15908 36.0071 2.15908C40.2832 2.15908 44.3752 2.96608 48.1416 4.42434C51.6318 5.77642 54.846 7.69482 57.6708 10.0592C57.8478 10.2078 58.0672 10.2857 58.2867 10.2857C58.5345 10.2857 58.7752 10.1937 58.9593 10.0096L59.1292 9.83974C59.5256 9.44332 59.4973 8.79205 59.0655 8.43103C56.0708 5.918 52.6726 3.87926 48.977 2.43516C44.9557 0.863632 40.5805 0 36.0071 0Z" fill="white"></path>
<path d="M69.5716 23.0278C68.1274 19.3326 66.0885 15.9347 63.5823 12.9403C63.2212 12.5085 62.5699 12.4802 62.1734 12.8766L62.0035 13.0465C61.6566 13.3934 61.6283 13.9526 61.9469 14.3349C64.3115 17.1594 66.23 20.3732 67.5823 23.8632C69.0407 27.6292 69.8477 31.7208 69.8477 35.9965C69.8477 45.3265 66.0531 53.7859 59.9221 59.9162C53.7911 66.0466 45.3309 69.8409 36 69.8409C31.7239 69.8409 27.6318 69.0339 23.8655 67.5757C20.3752 66.2236 17.161 64.3052 14.3363 61.9408C13.954 61.6223 13.3947 61.6435 13.0478 61.9974L12.8779 62.1673C12.4814 62.5638 12.5097 63.215 12.9416 63.5761C15.9363 66.082 19.3345 68.1207 23.0301 69.5648C27.0513 71.1364 31.4265 72 36 72C45.9256 72 54.9309 67.965 61.4442 61.4453C67.9646 54.9256 72 45.9282 72 36.0036C72.007 31.4235 71.1433 27.0558 69.5716 23.0278Z" fill="white"></path>
</svg>